<svg version="1.1" viewBox="0.0 0.0 434.56167979002623 339.5301837270341" fill="none" stroke="none" stroke-linecap="square" stroke-miterlimit="10" xmlns:xlink="http://www.w3.org/1999/xlink" xmlns="http://www.w3.org/2000/svg"><clipPath id="p.0"><path d="m0 0l434.56168 0l0 339.53018l-434.56168 0l0 -339.53018z" clip-rule="nonzero"/></clipPath><g clip-path="url(#p.0)"><path fill="#000000" fill-opacity="0.0" d="m0 0l434.56168 0l0 339.53018l-434.56168 0z" fill-rule="evenodd"/><path fill="#000000" fill-opacity="0.0" d="m211.75954 73.79646l1.3070984 -2.614174l1.3070831 2.614174z" fill-rule="evenodd"/><path fill="#000000" fill-opacity="0.0" d="m316.1388 191.74602l1.3070984 -2.6141663l1.3070984 2.6141663z" fill-rule="evenodd"/><path fill="#000000" fill-opacity="0.0" d="m133.81255 158.81883l1.3070984 -2.6141663l1.3070831 2.6141663z" fill-rule="evenodd"/><path fill="#000000" fill-opacity="0.0" d="m213.06664 71.18229l0.56692505 -71.1811" fill-rule="evenodd"/><path stroke="#000000" stroke-width="1.0" stroke-linejoin="round" stroke-linecap="butt" d="m213.06664 71.18229l0.56692505 -71.1811" fill-rule="evenodd"/><path fill="#000000" fill-opacity="0.0" d="m71.956 229.53596l1.3070908 -2.6141815l1.3070831 2.6141815z" fill-rule="evenodd"/><path fill="#000000" fill-opacity="0.0" d="m211.75954 73.79646l-76.62991 82.39371" fill-rule="evenodd"/><path stroke="#000000" stroke-width="1.0" stroke-linejoin="round" stroke-linecap="butt" d="m211.75954 73.79646l-76.62991 82.39371" fill-rule="evenodd"/><path fill="#000000" fill-opacity="0.0" d="m133.81255 158.81883l-60.53543 68.09448" fill-rule="evenodd"/><path stroke="#000000" stroke-width="1.0" stroke-linejoin="round" stroke-linecap="butt" d="m133.81255 158.81883l-60.53543 68.09448" fill-rule="evenodd"/><path fill="#000000" fill-opacity="0.0" d="m136.42673 158.81883l81.00787 130.45668" fill-rule="evenodd"/><path stroke="#000000" stroke-width="1.0" stroke-linejoin="round" stroke-linecap="butt" d="m136.42673 158.81883l81.00787 130.45668" fill-rule="evenodd"/><path fill="#000000" fill-opacity="0.0" d="m317.4459 189.13185l-103.08661 -115.338585" fill-rule="evenodd"/><path stroke="#000000" stroke-width="1.0" stroke-linejoin="round" stroke-linecap="butt" d="m317.4459 189.13185l-103.08661 -115.338585" fill-rule="evenodd"/><path fill="#000000" fill-opacity="0.0" d="m71.956 229.53596l-48.850395 59.74803" fill-rule="evenodd"/><path stroke="#000000" stroke-width="1.0" stroke-linejoin="round" stroke-linecap="butt" d="m71.956 229.53596l-48.850395 59.74803" fill-rule="evenodd"/><path fill="#000000" fill-opacity="0.0" d="m74.570175 229.53596l45.70079 59.74803" fill-rule="evenodd"/><path stroke="#000000" stroke-width="1.0" stroke-linejoin="round" stroke-linecap="butt" d="m74.570175 229.53596l45.70079 59.74803" fill-rule="evenodd"/><path fill="#000000" fill-opacity="0.0" d="m316.1388 191.74602l-1.5433044 97.54332" fill-rule="evenodd"/><path stroke="#000000" stroke-width="1.0" stroke-linejoin="round" stroke-linecap="butt" d="m316.1388 191.74602l-1.5433044 97.54332" fill-rule="evenodd"/><path fill="#000000" fill-opacity="0.0" d="m318.753 191.74602l93.00787 97.54332" fill-rule="evenodd"/><path stroke="#000000" stroke-width="1.0" stroke-linejoin="round" stroke-linecap="butt" d="m318.753 191.74602l93.00787 97.54332" fill-rule="evenodd"/><path fill="#000000" fill-opacity="0.0" d="m207.34383 0l46.204727 0l0 50.07874l-46.204727 0z" fill-rule="evenodd"/><path fill="#000000" d="m239.48811 33.32l-3.984375 0l-1.578125 -4.125l-7.25 0l-1.484375 4.125l-3.890625 0l7.0625 -18.125l3.875 0l7.25 18.125zm-6.734375 -7.171875l-2.5 -6.734375l-2.453125 6.734375l4.953125 0z" fill-rule="nonzero"/><path fill="#000000" fill-opacity="0.0" d="m134.31502 75.097115l46.204727 0l0 50.078735l-46.204727 0z" fill-rule="evenodd"/><path fill="#000000" d="m150.13116 90.292114l7.2500153 0q2.140625 0 3.203125 0.1875q1.0625 0.171875 1.890625 0.734375q0.828125 0.5625 1.390625 1.515625q0.5625 0.953125 0.5625 2.125q0 1.265625 -0.6875 2.328125q-0.6875 1.0625 -1.859375 1.59375q1.65625 0.484375 2.546875 1.65625q0.890625 1.15625 0.890625 2.734375q0 1.234375 -0.578125 2.40625q-0.578125 1.15625 -1.578125 1.859375q-0.984375 0.703125 -2.453125 0.859375q-0.90625 0.09375 -4.40625 0.125l-6.1718903 0l0 -18.125zm3.6562653 3.015625l0 4.1875l2.40625 0q2.125 0 2.65625 -0.0625q0.9375 -0.109375 1.46875 -0.640625q0.546875 -0.546875 0.546875 -1.421875q0 -0.84375 -0.46875 -1.359375q-0.46875 -0.53125 -1.375 -0.640625q-0.546875 -0.0625 -3.125 -0.0625l-2.109375 0zm0 7.203125l0 4.84375l3.390625 0q1.984375 0 2.515625 -0.109375q0.8125 -0.140625 1.3125 -0.71875q0.515625 -0.578125 0.515625 -1.53125q0 -0.828125 -0.390625 -1.390625q-0.390625 -0.578125 -1.140625 -0.828125q-0.75 -0.265625 -3.25 -0.265625l-2.953125 0z" fill-rule="nonzero"/><path fill="#000000" fill-opacity="0.0" d="m265.4879 99.784775l46.204712 0l0 50.078735l-46.204712 0z" fill-rule="evenodd"/><path fill="#000000" d="m292.8822 126.4329l3.5625 1.125q-0.828125 2.9687576 -2.734375 4.4218826q-1.890625 1.4375 -4.796875 1.4375q-3.625 0 -5.953125 -2.46875q-2.3125 -2.46875 -2.3125 -6.7500076q0 -4.53125 2.328125 -7.03125q2.34375 -2.5 6.15625 -2.5q3.328125 0 5.40625 1.96875q1.234375 1.15625 1.84375 3.328125l-3.625 0.875q-0.3125 -1.40625 -1.34375 -2.21875q-1.015625 -0.828125 -2.46875 -0.828125q-2.015625 0 -3.28125 1.453125q-1.25 1.4375 -1.25 4.6875q0 3.4375 1.234375 4.9062576q1.234375 1.453125 3.21875 1.453125q1.46875 0 2.515625 -0.921875q1.046875 -0.9375 1.5 -2.9375076z" fill-rule="nonzero"/><path fill="#000000" fill-opacity="0.0" d="m63.44095 153.7454l46.204727 0l0 50.078735l-46.204727 0z" fill-rule="evenodd"/><path fill="#000000" d="m79.22585 168.9404l6.6875 0q2.265625 0 3.453125 0.34375q1.59375 0.46875 2.734375 1.671875q1.140625 1.1875 1.734375 2.9375q0.59375 1.734375 0.59375 4.28125q0 2.234375 -0.5625 3.859375q-0.671875 1.96875 -1.9375 3.203125q-0.953125 0.921875 -2.578125 1.4375q-1.203125 0.390625 -3.234375 0.390625l-6.890625 0l0 -18.125zm3.65625 3.0625l0 12.0l2.734375 0q1.53125 0 2.21875 -0.171875q0.890625 -0.21875 1.46875 -0.75q0.59375 -0.53125 0.96875 -1.75q0.375 -1.21875 0.375 -3.3125q0 -2.109375 -0.375 -3.234375q-0.375 -1.125 -1.046875 -1.75q-0.65625 -0.640625 -1.6875 -0.859375q-0.765625 -0.171875 -3.0 -0.171875l-1.65625 0z" fill-rule="nonzero"/><path fill="#000000" fill-opacity="0.0" d="m0 289.28873l46.204723 0l0 50.078735l-46.204723 0z" fill-rule="evenodd"/><path fill="#000000" d="m26.027962 322.6087l-3.46875 0l0 -13.09375q-1.90625 1.78125 -4.5 2.625l0 -3.140625q1.359375 -0.453125 2.953125 -1.6875q1.59375 -1.25 2.1875 -2.90625l2.828125 0l0 18.203125z" fill-rule="nonzero"/><path fill="#000000" fill-opacity="0.0" d="m97.16547 289.28873l46.204727 0l0 50.078735l-46.204727 0z" fill-rule="evenodd"/><path fill="#000000" d="m126.03718 319.37433l0 3.234375l-12.1875 0q0.203125 -1.828125 1.1875 -3.46875q1.0 -1.640625 3.90625 -4.34375q2.359375 -2.1875 2.890625 -2.96875q0.71875 -1.078125 0.71875 -2.125q0 -1.171875 -0.625 -1.796875q-0.625 -0.625 -1.734375 -0.625q-1.078125 0 -1.734375 0.65625q-0.640625 0.65625 -0.734375 2.1875l-3.46875 -0.359375q0.3125 -2.859375 1.9375 -4.109375q1.640625 -1.25 4.09375 -1.25q2.6875 0 4.21875 1.453125q1.53125 1.4375 1.53125 3.59375q0 1.21875 -0.4375 2.328125q-0.4375 1.109375 -1.390625 2.3125q-0.640625 0.8125 -2.28125 2.328125q-1.640625 1.5 -2.078125 2.0q-0.4375 0.484375 -0.71875 0.953125l6.90625 0z" fill-rule="nonzero"/><path fill="#000000" fill-opacity="0.0" d="m194.33183 289.28873l46.204727 0l0 50.078735l-46.204727 0z" fill-rule="evenodd"/><path fill="#000000" d="m211.34418 317.7962l3.359375 -0.40625q0.171875 1.28125 0.875 1.96875q0.703125 0.671875 1.703125 0.671875q1.078125 0 1.8125 -0.8125q0.734375 -0.8125 0.734375 -2.203125q0 -1.3125 -0.703125 -2.078125q-0.703125 -0.765625 -1.71875 -0.765625q-0.671875 0 -1.59375 0.265625l0.375 -2.828125q1.40625 0.03125 2.140625 -0.609375q0.75 -0.65625 0.75 -1.734375q0 -0.921875 -0.546875 -1.453125q-0.53125 -0.546875 -1.4375 -0.546875q-0.890625 0 -1.53125 0.625q-0.625 0.609375 -0.75 1.796875l-3.203125 -0.546875q0.328125 -1.640625 1.0 -2.625q0.671875 -0.984375 1.875 -1.546875q1.21875 -0.5625 2.703125 -0.5625q2.5625 0 4.109375 1.625q1.28125 1.34375 1.28125 3.03125q0 2.375 -2.609375 3.796875q1.546875 0.34375 2.484375 1.5q0.9375 1.15625 0.9375 2.8125q0 2.375 -1.75 4.0625q-1.734375 1.6875 -4.34375 1.6875q-2.453125 0 -4.078125 -1.40625q-1.609375 -1.421875 -1.875 -3.71875z" fill-rule="nonzero"/><path fill="#000000" fill-opacity="0.0" d="m291.49475 289.28873l46.204712 0l0 50.078735l-46.204712 0z" fill-rule="evenodd"/><path fill="#000000" d="m315.44458 322.6087l0 -3.640625l-7.421875 0l0 -3.046875l7.859375 -11.515625l2.921875 0l0 11.5l2.25 0l0 3.0625l-2.25 0l0 3.640625l-3.359375 0zm0 -6.703125l0 -6.203125l-4.171875 6.203125l4.171875 0z" fill-rule="nonzero"/><path fill="#000000" fill-opacity="0.0" d="m388.66144 289.28873l46.204742 0l0 50.078735l-46.204742 0z" fill-rule="evenodd"/><path fill="#000000" d="m405.84567 317.95245l3.46875 -0.359375q0.140625 1.171875 0.875 1.859375q0.734375 0.6875 1.671875 0.6875q1.09375 0 1.84375 -0.875q0.765625 -0.890625 0.765625 -2.671875q0 -1.671875 -0.75 -2.5q-0.75 -0.84375 -1.953125 -0.84375q-1.5 0 -2.6875 1.328125l-2.8125 -0.421875l1.78125 -9.4375l9.1875 0l0 3.265625l-6.546875 0l-0.546875 3.078125q1.15625 -0.578125 2.375 -0.578125q2.3125 0 3.90625 1.6875q1.609375 1.671875 1.609375 4.359375q0 2.234375 -1.296875 3.984375q-1.765625 2.40625 -4.90625 2.40625q-2.515625 0 -4.09375 -1.34375q-1.578125 -1.359375 -1.890625 -3.625z" fill-rule="nonzero"/></g></svg>